<svg width="347" height="84" viewBox="0 0 347 84" fill="none" xmlns="http://www.w3.org/2000/svg">
<g filter="url(#filter0_d_202_660)">
<path d="M54.3985 1.6033H68.6198L42.6721 74.5297H29.8978L4 1.6033H18.1715L36.2351 58.552L54.3985 1.6033Z" fill="#10130D"/>
<path d="M93.9029 74.5297H81.0787V1.6033H93.9029V74.5297Z" fill="#10130D"/>
<path d="M150.922 55.6971C150.922 53.727 150.506 52.0407 149.675 50.6383C148.843 49.2359 147.313 47.9503 145.084 46.7816C142.888 45.6129 139.695 44.3774 135.503 43.0752C130.912 41.6727 126.804 40.0199 123.178 38.1166C119.585 36.1799 116.741 33.8091 114.645 31.0043C112.549 28.1994 111.501 24.7768 111.501 20.7365C111.501 16.7963 112.599 13.3069 114.795 10.2683C116.99 7.22972 120.034 4.85894 123.926 3.15599C127.819 1.45304 132.326 0.601562 137.449 0.601562C142.872 0.601562 147.546 1.6033 151.471 3.60677C155.43 5.57685 158.457 8.24815 160.553 11.6207C162.682 14.9932 163.746 18.7497 163.746 22.8902H150.872C150.872 19.4175 149.758 16.5626 147.529 14.3253C145.333 12.0547 141.924 10.9194 137.299 10.9194C132.942 10.9194 129.698 11.8711 127.569 13.7744C125.44 15.6443 124.376 17.965 124.376 20.7365C124.376 23.4078 125.64 25.645 128.168 27.4481C130.729 29.2178 134.605 30.8707 139.794 32.4067C147.878 34.8109 153.899 37.8161 157.858 41.4223C161.817 44.9952 163.796 49.72 163.796 55.5969C163.796 61.7743 161.434 66.6494 156.71 70.2222C152.02 73.7617 145.732 75.5314 137.848 75.5314C134.355 75.5314 130.912 75.0639 127.519 74.129C124.126 73.1607 121.049 71.7248 118.288 69.8215C115.56 67.8848 113.364 65.464 111.701 62.5589C110.071 59.6539 109.256 56.2313 109.256 52.2911H122.13C122.13 56.9325 123.644 60.2549 126.671 62.2584C129.698 64.2619 133.424 65.2636 137.848 65.2636C142.173 65.2636 145.433 64.3788 147.629 62.609C149.824 60.8059 150.922 58.5019 150.922 55.6971Z" fill="#10130D"/>
<path d="M192.073 74.5297H179.249V1.6033H192.073V74.5297Z" fill="#10130D"/>
<path d="M269.202 39.9698C269.202 47.3492 267.938 53.6936 265.409 59.0028C262.881 64.312 259.355 68.4024 254.831 71.2741C250.307 74.1123 245.034 75.5314 239.013 75.5314C233.091 75.5314 227.835 74.1123 223.244 71.2741C218.687 68.4024 215.111 64.312 212.516 59.0028C209.954 53.6936 208.674 47.3492 208.674 39.9698V36.2133C208.674 28.8338 209.954 22.4895 212.516 17.1803C215.077 11.8711 218.637 7.78067 223.194 4.90903C227.752 2.03738 232.991 0.601562 238.913 0.601562C244.934 0.601562 250.207 2.03738 254.731 4.90903C259.288 7.78067 262.831 11.8711 265.36 17.1803C267.921 22.4895 269.202 28.8338 269.202 36.2133V39.9698ZM256.278 36.1131C256.278 28.0324 254.748 21.8885 251.687 17.6812C248.66 13.4405 244.402 11.3201 238.913 11.3201C233.524 11.3201 229.299 13.4405 226.238 17.6812C223.178 21.8885 221.648 28.0324 221.648 36.1131V39.9698C221.648 48.0171 223.194 54.1777 226.288 58.4518C229.382 62.7259 233.623 64.8629 239.013 64.8629C244.535 64.8629 248.793 62.7259 251.787 58.4518C254.781 54.1777 256.278 48.0171 256.278 39.9698V36.1131Z" fill="#10130D"/>
<path d="M342.887 74.5297H329.963L297.928 23.1406V74.5297H285.054V1.6033H297.928L330.063 53.0925V1.6033H342.887V74.5297Z" fill="#10130D"/>
</g>
<defs>
<filter id="filter0_d_202_660" x="0" y="0.601562" width="346.887" height="82.9297" filterUnits="userSpaceOnUse" color-interpolation-filters="sRGB">
<feFlood flood-opacity="0" result="BackgroundImageFix"/>
<feColorMatrix in="SourceAlpha" type="matrix" values="0 0 0 0 0 0 0 0 0 0 0 0 0 0 0 0 0 0 127 0" result="hardAlpha"/>
<feOffset dy="4"/>
<feGaussianBlur stdDeviation="2"/>
<feComposite in2="hardAlpha" operator="out"/>
<feColorMatrix type="matrix" values="0 0 0 0 0 0 0 0 0 0 0 0 0 0 0 0 0 0 0.25 0"/>
<feBlend mode="normal" in2="BackgroundImageFix" result="effect1_dropShadow_202_660"/>
<feBlend mode="normal" in="SourceGraphic" in2="effect1_dropShadow_202_660" result="shape"/>
</filter>
</defs>
</svg>
