<svg width="309" height="18" viewBox="0 0 309 18" fill="none" xmlns="http://www.w3.org/2000/svg">
<path d="M7.53252 17V10.6105L8.08087 12.0887L0.904635 0.311079H3.45566L9.48751 10.2529H8.10471L14.1604 0.311079H16.5207L9.3683 12.0887L9.89281 10.6105V17H7.53252ZM26.9438 17.1907C25.6723 17.1907 24.4882 16.9762 23.3915 16.547C22.3107 16.1179 21.3729 15.5218 20.5782 14.7589C19.7835 13.9801 19.1636 13.0741 18.7186 12.041C18.2735 11.0079 18.051 9.87939 18.051 8.65554C18.051 7.43169 18.2735 6.3032 18.7186 5.27007C19.1636 4.23695 19.7835 3.33893 20.5782 2.576C21.3729 1.79719 22.3107 1.19321 23.3915 0.764064C24.4723 0.334921 25.6564 0.120349 26.9438 0.120349C28.2154 0.120349 29.3836 0.334921 30.4485 0.764064C31.5293 1.17731 32.4671 1.77335 33.2618 2.55216C34.0724 3.31509 34.6922 4.21311 35.1214 5.24623C35.5664 6.27935 35.7889 7.41579 35.7889 8.65554C35.7889 9.89529 35.5664 11.0317 35.1214 12.0648C34.6922 13.098 34.0724 14.0039 33.2618 14.7828C32.4671 15.5457 31.5293 16.1417 30.4485 16.5709C29.3836 16.9841 28.2154 17.1907 26.9438 17.1907ZM26.9438 15.0689C27.8657 15.0689 28.716 14.9099 29.4948 14.592C30.2896 14.2741 30.973 13.8291 31.5452 13.2569C32.1333 12.6688 32.5863 11.9854 32.9041 11.2066C33.2379 10.4277 33.4048 9.5774 33.4048 8.65554C33.4048 7.73368 33.2379 6.88334 32.9041 6.10452C32.5863 5.3257 32.1333 4.6502 31.5452 4.07801C30.973 3.48992 30.2896 3.03694 29.4948 2.71905C28.716 2.40117 27.8657 2.24223 26.9438 2.24223C26.0061 2.24223 25.1398 2.40117 24.3451 2.71905C23.5663 3.03694 22.8829 3.48992 22.2948 4.07801C21.7067 4.6502 21.2457 5.3257 20.912 6.10452C20.5941 6.88334 20.4351 7.73368 20.4351 8.65554C20.4351 9.5774 20.5941 10.4277 20.912 11.2066C21.2457 11.9854 21.7067 12.6688 22.2948 13.2569C22.8829 13.8291 23.5663 14.2741 24.3451 14.592C25.1398 14.9099 26.0061 15.0689 26.9438 15.0689ZM47.539 17.1907C45.3456 17.1907 43.6211 16.5629 42.3654 15.3073C41.1098 14.0516 40.482 12.2158 40.482 9.79992V0.311079H42.8661V9.70456C42.8661 11.5642 43.2714 12.9231 44.082 13.7814C44.9085 14.6397 46.0688 15.0689 47.5628 15.0689C49.0728 15.0689 50.2331 14.6397 51.0437 13.7814C51.8702 12.9231 52.2834 11.5642 52.2834 9.70456V0.311079H54.596V9.79992C54.596 12.2158 53.9682 14.0516 52.7126 15.3073C51.4728 16.5629 49.7483 17.1907 47.539 17.1907ZM72.1091 17L66.5303 0.311079H68.9859L74.1118 15.7126H72.8721L78.1887 0.311079H80.3821L85.5795 15.7126H84.3874L89.5848 0.311079H91.8497L86.2709 17H83.7675L78.9039 2.71905H79.5476L74.6602 17H72.1091ZM92.8956 17L100.453 0.311079H102.814L110.395 17H107.892L101.145 1.64619H102.098L95.3513 17H92.8956ZM96.1142 12.8278L96.7579 10.9205H106.151L106.843 12.8278H96.1142ZM114.077 17V0.311079H116.032L127.07 14.0198H126.045V0.311079H128.429V17H126.474L115.436 3.29124H116.461V17H114.077ZM137.931 17V2.38527H132.209V0.311079H146.013V2.38527H140.291V17H137.931ZM156.252 11.445V9.46614H162.665V11.445H156.252ZM179.148 17L173.569 0.311079H176.025L181.151 15.7126H179.911L185.228 0.311079H187.421L192.619 15.7126H191.427L196.624 0.311079H198.889L193.31 17H190.807L185.943 2.71905H186.587L181.699 17H179.148ZM205.167 7.51116H213.75V9.53767H205.167V7.51116ZM205.382 14.9258H215.109V17H202.997V0.311079H214.775V2.38527H205.382V14.9258ZM232.62 17.1907C231.348 17.1907 230.132 17 228.972 16.6185C227.812 16.2212 226.898 15.7126 226.23 15.0927L227.112 13.2331C227.748 13.7894 228.559 14.2503 229.544 14.6159C230.53 14.9814 231.555 15.1642 232.62 15.1642C233.589 15.1642 234.376 15.053 234.98 14.8304C235.584 14.6079 236.029 14.3059 236.315 13.9245C236.601 13.5271 236.744 13.0821 236.744 12.5894C236.744 12.0172 236.553 11.5562 236.172 11.2066C235.806 10.8569 235.322 10.5787 234.718 10.3721C234.13 10.1496 233.478 9.95886 232.763 9.79992C232.047 9.64098 231.324 9.4582 230.593 9.25157C229.878 9.02905 229.218 8.7509 228.614 8.41713C228.026 8.08335 227.549 7.63831 227.184 7.08201C226.818 6.50982 226.636 5.77869 226.636 4.88861C226.636 4.03032 226.858 3.24356 227.303 2.52832C227.764 1.79719 228.463 1.21705 229.401 0.787906C230.355 0.342868 231.563 0.120349 233.025 0.120349C233.995 0.120349 234.956 0.247503 235.91 0.50181C236.863 0.756117 237.69 1.12168 238.389 1.59851L237.603 3.50582C236.887 3.02899 236.132 2.68726 235.338 2.48064C234.543 2.25812 233.772 2.14686 233.025 2.14686C232.087 2.14686 231.316 2.26607 230.712 2.50448C230.108 2.74289 229.663 3.06078 229.377 3.45813C229.107 3.85549 228.972 4.30053 228.972 4.79325C228.972 5.38133 229.155 5.85021 229.52 6.19988C229.902 6.54956 230.387 6.82771 230.975 7.03433C231.579 7.24095 232.238 7.43169 232.953 7.60652C233.669 7.76546 234.384 7.94825 235.099 8.15487C235.83 8.3615 236.49 8.6317 237.078 8.96548C237.682 9.29926 238.167 9.74429 238.532 10.3006C238.898 10.8569 239.081 11.5721 239.081 12.4463C239.081 13.2887 238.85 14.0755 238.389 14.8066C237.928 15.5218 237.213 16.102 236.244 16.547C235.29 16.9762 234.082 17.1907 232.62 17.1907ZM255.724 0.311079H258.108V17H255.724V0.311079ZM246.14 17H243.756V0.311079H246.14V17ZM255.939 9.56151H245.902V7.48732H255.939V9.56151ZM271.83 17.1907C270.558 17.1907 269.374 16.9762 268.277 16.547C267.196 16.1179 266.259 15.5218 265.464 14.7589C264.669 13.9801 264.049 13.0741 263.604 12.041C263.159 11.0079 262.937 9.87939 262.937 8.65554C262.937 7.43169 263.159 6.3032 263.604 5.27007C264.049 4.23695 264.669 3.33893 265.464 2.576C266.259 1.79719 267.196 1.19321 268.277 0.764064C269.358 0.334921 270.542 0.120349 271.83 0.120349C273.101 0.120349 274.269 0.334921 275.334 0.764064C276.415 1.17731 277.353 1.77335 278.147 2.55216C278.958 3.31509 279.578 4.21311 280.007 5.24623C280.452 6.27935 280.675 7.41579 280.675 8.65554C280.675 9.89529 280.452 11.0317 280.007 12.0648C279.578 13.098 278.958 14.0039 278.147 14.7828C277.353 15.5457 276.415 16.1417 275.334 16.5709C274.269 16.9841 273.101 17.1907 271.83 17.1907ZM271.83 15.0689C272.751 15.0689 273.602 14.9099 274.381 14.592C275.175 14.2741 275.859 13.8291 276.431 13.2569C277.019 12.6688 277.472 11.9854 277.79 11.2066C278.124 10.4277 278.291 9.5774 278.291 8.65554C278.291 7.73368 278.124 6.88334 277.79 6.10452C277.472 5.3257 277.019 4.6502 276.431 4.07801C275.859 3.48992 275.175 3.03694 274.381 2.71905C273.602 2.40117 272.751 2.24223 271.83 2.24223C270.892 2.24223 270.026 2.40117 269.231 2.71905C268.452 3.03694 267.769 3.48992 267.18 4.07801C266.592 4.6502 266.131 5.3257 265.798 6.10452C265.48 6.88334 265.321 7.73368 265.321 8.65554C265.321 9.5774 265.48 10.4277 265.798 11.2066C266.131 11.9854 266.592 12.6688 267.18 13.2569C267.769 13.8291 268.452 14.2741 269.231 14.592C270.026 14.9099 270.892 15.0689 271.83 15.0689ZM288.837 17L283.258 0.311079H285.714L290.84 15.7126H289.6L294.916 0.311079H297.11L302.307 15.7126H301.115L306.313 0.311079H308.578L302.999 17H300.495L295.632 2.71905H296.275L291.388 17H288.837Z" fill="black"/>
</svg>
